<?xml version="1.0" encoding="utf-8" ?>
<svg baseProfile="full" height="600" version="1.1" width="640" xmlns="http://www.w3.org/2000/svg" xmlns:ev="http://www.w3.org/2001/xml-events" xmlns:xlink="http://www.w3.org/1999/xlink"><defs /><rect fill="black" height="30" stroke="white" width="160" x="0" y="0" /><text fill="white" font-family="monospace" font-size="14" x="6" y="20">Base address</text><rect fill="black" height="30" stroke="white" width="160" x="160" y="0" /><text fill="white" font-family="monospace" font-size="14" x="166" y="20">Top address</text><rect fill="black" height="30" stroke="white" width="160" x="320" y="0" /><text fill="white" font-family="monospace" font-size="14" x="326" y="20">Reserved</text><rect fill="black" height="30" stroke="white" width="160" x="480" y="0" /><text fill="white" font-family="monospace" font-size="14" x="486" y="20">Function</text><rect fill="white" height="30" stroke="black" width="160" x="0" y="30" /><text font-family="monospace" font-size="14" x="6" y="50">0x00080000</text><rect fill="white" height="30" stroke="black" width="160" x="160" y="30" /><text font-family="monospace" font-size="14" x="166" y="50">0x00087fff</text><rect fill="white" height="30" stroke="black" width="160" x="320" y="30" /><text font-family="monospace" font-size="14" x="326" y="50">32.0 kiB</text><rect fill="white" height="30" stroke="black" width="160" x="480" y="30" /><text font-family="monospace" font-size="14" x="486" y="50">ROM</text><rect fill="white" height="30" stroke="black" width="160" x="0" y="60" /><text font-family="monospace" font-size="14" x="6" y="80">0x10000000</text><rect fill="white" height="30" stroke="black" width="160" x="160" y="60" /><text font-family="monospace" font-size="14" x="166" y="80">0x1001ffff</text><rect fill="white" height="30" stroke="black" width="160" x="320" y="60" /><text font-family="monospace" font-size="14" x="326" y="80">128.0 kiB</text><rect fill="white" height="30" stroke="black" width="160" x="480" y="60" /><text font-family="monospace" font-size="14" x="486" y="80">SRAM</text><rect fill="white" height="30" stroke="black" width="160" x="0" y="90" /><text font-family="monospace" font-size="14" x="6" y="110">0x20000000</text><rect fill="white" height="30" stroke="black" width="160" x="160" y="90" /><text font-family="monospace" font-size="14" x="166" y="110">0x2000ffff</text><rect fill="white" height="30" stroke="black" width="160" x="320" y="90" /><text font-family="monospace" font-size="14" x="326" y="110">64.0 kiB</text><rect fill="white" height="30" stroke="black" width="160" x="480" y="90" /><text font-family="monospace" font-size="14" x="486" y="110">DEBUG_MODULE</text><rect fill="white" height="30" stroke="black" width="160" x="0" y="120" /><text font-family="monospace" font-size="14" x="6" y="140">0x20010000</text><rect fill="white" height="30" stroke="black" width="160" x="160" y="120" /><text font-family="monospace" font-size="14" x="166" y="140">0x2001ffff</text><rect fill="white" height="30" stroke="black" width="160" x="320" y="120" /><text font-family="monospace" font-size="14" x="326" y="140">64.0 kiB</text><rect fill="white" height="30" stroke="black" width="160" x="480" y="120" /><text font-family="monospace" font-size="14" x="486" y="140">MAILBOX</text><rect fill="white" height="30" stroke="black" width="160" x="0" y="150" /><text font-family="monospace" font-size="14" x="6" y="170">0x20020000</text><rect fill="white" height="30" stroke="black" width="160" x="160" y="150" /><text font-family="monospace" font-size="14" x="166" y="170">0x2002ffff</text><rect fill="white" height="30" stroke="black" width="160" x="320" y="150" /><text font-family="monospace" font-size="14" x="326" y="170">64.0 kiB</text><rect fill="white" height="30" stroke="black" width="160" x="480" y="150" /><text font-family="monospace" font-size="14" x="486" y="170">DV_SW_IFC</text><rect fill="white" height="30" stroke="black" width="160" x="0" y="180" /><text font-family="monospace" font-size="14" x="6" y="200">0x40000000</text><rect fill="white" height="30" stroke="black" width="160" x="160" y="180" /><text font-family="monospace" font-size="14" x="166" y="200">0x4000ffff</text><rect fill="white" height="30" stroke="black" width="160" x="320" y="180" /><text font-family="monospace" font-size="14" x="326" y="200">64.0 kiB</text><rect fill="white" height="30" stroke="black" width="160" x="480" y="180" /><text font-family="monospace" font-size="14" x="486" y="200">GPIO</text><rect fill="white" height="30" stroke="black" width="160" x="0" y="210" /><text font-family="monospace" font-size="14" x="6" y="230">0x40020000</text><rect fill="white" height="30" stroke="black" width="160" x="160" y="210" /><text font-family="monospace" font-size="14" x="166" y="230">0x4002ffff</text><rect fill="white" height="30" stroke="black" width="160" x="320" y="210" /><text font-family="monospace" font-size="14" x="326" y="230">64.0 kiB</text><rect fill="white" height="30" stroke="black" width="160" x="480" y="210" /><text font-family="monospace" font-size="14" x="486" y="230">CLOCK_MANAGER</text><rect fill="white" height="30" stroke="black" width="160" x="0" y="240" /><text font-family="monospace" font-size="14" x="6" y="260">0x40030000</text><rect fill="white" height="30" stroke="black" width="160" x="160" y="240" /><text font-family="monospace" font-size="14" x="166" y="260">0x4003ffff</text><rect fill="white" height="30" stroke="black" width="160" x="320" y="240" /><text font-family="monospace" font-size="14" x="326" y="260">64.0 kiB</text><rect fill="white" height="30" stroke="black" width="160" x="480" y="240" /><text font-family="monospace" font-size="14" x="486" y="260">RESET_MANAGER</text><rect fill="white" height="30" stroke="black" width="160" x="0" y="270" /><text font-family="monospace" font-size="14" x="6" y="290">0x40040000</text><rect fill="white" height="30" stroke="black" width="160" x="160" y="270" /><text font-family="monospace" font-size="14" x="166" y="290">0x4004ffff</text><rect fill="white" height="30" stroke="black" width="160" x="320" y="270" /><text font-family="monospace" font-size="14" x="326" y="290">64.0 kiB</text><rect fill="white" height="30" stroke="black" width="160" x="480" y="270" /><text font-family="monospace" font-size="14" x="486" y="290">POWER_MANAGER</text><rect fill="white" height="30" stroke="black" width="160" x="0" y="300" /><text font-family="monospace" font-size="14" x="6" y="320">0x40050000</text><rect fill="white" height="30" stroke="black" width="160" x="160" y="300" /><text font-family="monospace" font-size="14" x="166" y="320">0x4005ffff</text><rect fill="white" height="30" stroke="black" width="160" x="320" y="300" /><text font-family="monospace" font-size="14" x="326" y="320">64.0 kiB</text><rect fill="white" height="30" stroke="black" width="160" x="480" y="300" /><text font-family="monospace" font-size="14" x="486" y="320">ROM_CONTROL</text><rect fill="white" height="30" stroke="black" width="160" x="0" y="330" /><text font-family="monospace" font-size="14" x="6" y="350">0x40060000</text><rect fill="white" height="30" stroke="black" width="160" x="160" y="330" /><text font-family="monospace" font-size="14" x="166" y="350">0x4006ffff</text><rect fill="white" height="30" stroke="black" width="160" x="320" y="330" /><text font-family="monospace" font-size="14" x="326" y="350">64.0 kiB</text><rect fill="white" height="30" stroke="black" width="160" x="480" y="330" /><text font-family="monospace" font-size="14" x="486" y="350">ENTROPY_SOURCE</text><rect fill="white" height="30" stroke="black" width="160" x="0" y="360" /><text font-family="monospace" font-size="14" x="6" y="380">0x40070000</text><rect fill="white" height="30" stroke="black" width="160" x="160" y="360" /><text font-family="monospace" font-size="14" x="166" y="380">0x4007ffff</text><rect fill="white" height="30" stroke="black" width="160" x="320" y="360" /><text font-family="monospace" font-size="14" x="326" y="380">64.0 kiB</text><rect fill="white" height="30" stroke="black" width="160" x="480" y="360" /><text font-family="monospace" font-size="14" x="486" y="380">KMAC</text><rect fill="white" height="30" stroke="black" width="160" x="0" y="390" /><text font-family="monospace" font-size="14" x="6" y="410">0x41000000</text><rect fill="white" height="30" stroke="black" width="160" x="160" y="390" /><text font-family="monospace" font-size="14" x="166" y="410">0x4100ffff</text><rect fill="white" height="30" stroke="black" width="160" x="320" y="390" /><text font-family="monospace" font-size="14" x="326" y="410">64.0 kiB</text><rect fill="white" height="30" stroke="black" width="160" x="480" y="390" /><text font-family="monospace" font-size="14" x="486" y="410">UART</text><rect fill="white" height="30" stroke="black" width="160" x="0" y="420" /><text font-family="monospace" font-size="14" x="6" y="440">0x42000000</text><rect fill="white" height="30" stroke="black" width="160" x="160" y="420" /><text font-family="monospace" font-size="14" x="166" y="440">0x4200ffff</text><rect fill="white" height="30" stroke="black" width="160" x="320" y="420" /><text font-family="monospace" font-size="14" x="326" y="440">64.0 kiB</text><rect fill="white" height="30" stroke="black" width="160" x="480" y="420" /><text font-family="monospace" font-size="14" x="486" y="440">I2C</text><rect fill="white" height="30" stroke="black" width="160" x="0" y="450" /><text font-family="monospace" font-size="14" x="6" y="470">0x43000000</text><rect fill="white" height="30" stroke="black" width="160" x="160" y="450" /><text font-family="monospace" font-size="14" x="166" y="470">0x4300ffff</text><rect fill="white" height="30" stroke="black" width="160" x="320" y="450" /><text font-family="monospace" font-size="14" x="326" y="470">64.0 kiB</text><rect fill="white" height="30" stroke="black" width="160" x="480" y="450" /><text font-family="monospace" font-size="14" x="486" y="470">SPI_DEVICE</text><rect fill="white" height="30" stroke="black" width="160" x="0" y="480" /><text font-family="monospace" font-size="14" x="6" y="500">0x44000000</text><rect fill="white" height="30" stroke="black" width="160" x="160" y="480" /><text font-family="monospace" font-size="14" x="166" y="500">0x4400ffff</text><rect fill="white" height="30" stroke="black" width="160" x="320" y="480" /><text font-family="monospace" font-size="14" x="326" y="500">64.0 kiB</text><rect fill="white" height="30" stroke="black" width="160" x="480" y="480" /><text font-family="monospace" font-size="14" x="486" y="500">TIMER</text><rect fill="white" height="30" stroke="black" width="160" x="0" y="510" /><text font-family="monospace" font-size="14" x="6" y="530">0x45000000</text><rect fill="white" height="30" stroke="black" width="160" x="160" y="510" /><text font-family="monospace" font-size="14" x="166" y="530">0x4500ffff</text><rect fill="white" height="30" stroke="black" width="160" x="320" y="510" /><text font-family="monospace" font-size="14" x="326" y="530">64.0 kiB</text><rect fill="white" height="30" stroke="black" width="160" x="480" y="510" /><text font-family="monospace" font-size="14" x="486" y="530">SPI_HOST</text><rect fill="white" height="30" stroke="black" width="160" x="0" y="540" /><text font-family="monospace" font-size="14" x="6" y="560">0x48000000</text><rect fill="white" height="30" stroke="black" width="160" x="160" y="540" /><text font-family="monospace" font-size="14" x="166" y="560">0x4c004003</text><rect fill="white" height="30" stroke="black" width="160" x="320" y="540" /><text font-family="monospace" font-size="14" x="326" y="560">64.0 MiB</text><rect fill="white" height="30" stroke="black" width="160" x="480" y="540" /><text font-family="monospace" font-size="14" x="486" y="560">PLIC</text><rect fill="white" height="30" stroke="black" width="160" x="0" y="570" /><text font-family="monospace" font-size="14" x="6" y="590">0x80000000</text><rect fill="white" height="30" stroke="black" width="160" x="160" y="570" /><text font-family="monospace" font-size="14" x="166" y="590">0xbf7fffff</text><rect fill="white" height="30" stroke="black" width="160" x="320" y="570" /><text font-family="monospace" font-size="14" x="326" y="590">1016.0 MiB</text><rect fill="white" height="30" stroke="black" width="160" x="480" y="570" /><text font-family="monospace" font-size="14" x="486" y="590">DRAM</text></svg>